<svg t="1700100496550" class="icon" viewBox="0 0 1024 1024" version="1.1" xmlns="http://www.w3.org/2000/svg" p-id="6480" width="200" height="200"><path d="M928 1024H96a96 96 0 0 1-96-96V608a96 96 0 0 1 96-96h832a96 96 0 0 1 96 96v320a96 96 0 0 1-96 96zM96 576a32 32 0 0 0-32 32v320a32 32 0 0 0 32 32h832a32 32 0 0 0 32-32V608a32 32 0 0 0-32-32z" fill="#000000" p-id="6481"></path><path d="M160 96h288v384H160V96z" fill="#000000" p-id="6482"></path><path d="M576 96h288v384h-288V96z" fill="#000000" p-id="6483"></path><path d="M896 576H128a64 64 0 0 1-64-64V64a64 64 0 0 1 64-64h768a64 64 0 0 1 64 64v448a64 64 0 0 1-64 64zM128 64v448h768V64z" fill="#000000" p-id="6484"></path><path d="M214.72 203.52L259.84 160a32 32 0 0 1 45.44 0 32 32 0 0 1 0 45.12L259.84 248.96a32 32 0 0 1-45.12 0 32 32 0 0 1 0-45.44z m58.56 90.56l90.24-90.56a32 32 0 1 1 45.44 45.44L320 339.52a32 32 0 0 1-45.12 0 32 32 0 0 1-1.6-45.44z" fill="#000000" p-id="6485"></path><path d="M630.72 203.52L675.84 160a32 32 0 0 1 45.44 0 32 32 0 0 1 0 45.12l-45.44 43.84a32 32 0 0 1-45.12 0 32 32 0 0 1 0-45.44z m58.56 90.56l90.24-90.56a32 32 0 1 1 45.44 45.44L736 339.52a32 32 0 0 1-45.12 0 32 32 0 0 1-1.6-45.44z" fill="#000000" p-id="6486"></path><path d="M512 32a32 32 0 0 1 32 32v928a32 32 0 0 1-32 32 32 32 0 0 1-32-32V64a32 32 0 0 1 32-32z" fill="#000000" p-id="6487"></path><path d="M32 672h960a32 32 0 0 1 32 32 32 32 0 0 1-32 32H32a32 32 0 0 1-32-32 32 32 0 0 1 32-32z" fill="#000000" p-id="6488"></path><path d="M192 672a32 32 0 0 1 32 32v288a32 32 0 0 1-32 32 32 32 0 0 1-32-32v-288a32 32 0 0 1 32-32z" fill="#000000" p-id="6489"></path><path d="M832 672a32 32 0 0 1 32 32v288a32 32 0 0 1-32 32 32 32 0 0 1-32-32v-288a32 32 0 0 1 32-32zM352 672a32 32 0 0 1 32 32v288a32 32 0 0 1-32 32 32 32 0 0 1-32-32v-288a32 32 0 0 1 32-32zM512 672a32 32 0 0 1 32 32v288a32 32 0 0 1-32 32 32 32 0 0 1-32-32v-288a32 32 0 0 1 32-32zM672 672a32 32 0 0 1 32 32v288a32 32 0 0 1-32 32 32 32 0 0 1-32-32v-288a32 32 0 0 1 32-32z" fill="#000000" p-id="6490"></path></svg>