<svg t="1735028979542" class="icon" viewBox="0 0 1024 1024" version="1.1" xmlns="http://www.w3.org/2000/svg" p-id="8961" width="200" height="200"><path d="M596.890474 77.630461l-70.961484 70.903284c24.227471 38.04006 48.45996 76.079116 72.693452 114.124194 53.881639 53.883646 107.765285 107.767292 161.689069 161.655955 38.01096 24.233492 76.043995 48.45996 114.089073 72.628227l70.898267-70.904287-127.64879-220.719447L596.890474 77.630461 596.890474 77.630461zM905.107378 517.53507c4.13023 110.916141-36.129477 223.129752-120.781129 307.776386-161.413119 161.413119-423.136839 161.413119-584.54795 0-161.436198-161.406094-161.436198-423.129814 0-584.606151 84.900509-84.900509 197.59879-125.091981 308.826002-120.654693l-18.129462 18.122437 89.464232 140.450897 2.654144 2.711341c53.947867 53.883646 107.829506 107.772309 161.713152 161.71817l2.688262 2.654144 140.503077 89.459215L905.107378 517.53507 905.107378 517.53507zM212.329542 535.186886c7.300151-5.867214 8.459144-16.542996 2.58892-23.840137l-57.416819-71.363871c-5.866211-7.29112-16.531958-8.450113-23.827092-2.587916l-0.26692 0.21474c-7.301155 5.867214-8.461151 16.542996-2.589923 23.84114l57.412805 71.364874c5.867214 7.293127 16.535972 8.451117 23.831106 2.587916L212.329542 535.186886zM371.261111 284.757077l34.303185-88.547072c3.381651-8.728071-0.950274-18.545896-9.676338-21.930558l-0.328131-0.127439c-8.732085-3.388675-18.557938 0.947264-21.942599 9.682359l-34.300175 88.548076c-3.381651 8.730078 0.951277 18.545896 9.679348 21.931561l0.327127 0.126436C358.053607 297.826104 367.877453 293.491169 371.261111 284.757077zM766.410524 551.283343l60.009752 74.576941c5.865207 7.289113 16.528947 8.44911 23.824081 2.590927l0.281971-0.226781c7.308179-5.867214 8.469179-16.55002 2.592933-23.851175l-60.019787-74.569917c-5.869221-7.29112-16.535972-8.447103-23.831106-2.582899l-0.271937 0.218754C761.696282 533.310421 760.538292 543.986202 766.410524 551.283343zM612.467141 782.249093l-34.790865 89.775304c-3.382654 8.728071 0.949271 18.5469 9.676338 21.932565l0.327127 0.126436c8.732085 3.388675 18.556934-0.947264 21.941596-9.680352l34.787855-89.776307c3.381651-8.728071-0.949271-18.544893-9.674331-21.931561l-0.324117-0.125432C625.677655 769.180066 615.851802 773.513997 612.467141 782.249093zM338.852453 761.517666l-95.483972 14.840129c-9.233813 1.434944-15.563622 10.0717-14.150754 19.308524l0.05218 0.338165c1.416882 9.267931 10.090766 15.624832 19.355686 14.185875l95.483972-14.834108c9.234817-1.435947 15.565628-10.073707 14.150754-19.311534l-0.05218-0.343182C356.78925 766.4326 348.11637 760.077705 338.852453 761.517666zM605.771071 419.196262c-8.448106-8.382882-22.105159-8.382882-30.516138 0-8.446099 8.446099-8.446099 22.132253 0 30.516138 8.411982 8.448106 22.068031 8.448106 30.516138 0C614.153952 441.327511 614.153952 427.643365 605.771071 419.196262L605.771071 419.196262zM450.341567 377.637078c-11.526713 3.086634-18.313094 14.920405-15.260577 26.455146 3.087638 11.464499 14.920405 18.307074 26.420025 15.224453 11.52872-3.080614 18.341191-14.919402 15.289678-26.388918C473.709076 381.399039 461.869284 374.556464 450.341567 377.637078L450.341567 377.637078zM336.650867 491.455217c-3.081617 11.52872 3.760958 23.367508 15.224453 26.448122 11.533737 3.086634 23.367508-3.75594 26.455146-15.289678 3.080614-11.534741-3.762965-23.304291-15.295698-26.384904C351.570269 473.142122 339.737502 479.922483 336.650867 491.455217L336.650867 491.455217zM378.330467 646.827523c8.446099 8.446099 22.070038 8.446099 30.515134 0 8.448106-8.448106 8.448106-22.076059 0-30.522158-8.446099-8.387899-22.068031-8.387899-30.515134 0C369.911461 624.752467 369.911461 638.38042 378.330467 646.827523L378.330467 646.827523zM533.758966 688.38169c11.52872-3.081617 18.343198-14.920405 15.232481-26.390925-3.087638-11.52872-14.892309-18.370291-26.390925-15.290681-11.52872 3.081617-18.343198 14.920405-15.290681 26.448122C510.392462 684.675923 522.230246 691.462304 533.758966 688.38169L533.758966 688.38169zM647.45067 574.566561c3.080614-11.469516-3.762965-23.308304-15.22646-26.390925-11.533737-3.080614-23.366505 3.761961-26.453139 15.231477-3.081617 11.52872 3.760958 23.367508 15.295698 26.448122C632.530264 592.937856 644.364035 586.095281 647.45067 574.566561L647.45067 574.566561zM656.145627 368.266794c-44.945853-44.945853-103.952148-67.447377-162.890208-67.447377-58.943077 0-117.950376 22.501525-162.896228 67.447377-45.00907 45.00907-67.510595 103.953151-67.510595 162.890208 0 59.005292 22.502528 117.943352 67.510595 162.958443 44.945853 44.945853 103.953151 67.447377 162.896228 67.447377 58.93806 0 117.943352-22.501525 162.890208-67.447377 45.004053-45.015091 67.505578-103.953151 67.505578-162.958443C723.651205 472.219945 701.14968 413.274861 656.145627 368.266794L656.145627 368.266794zM677.845389 531.157002c0 47.287922-18.008043 94.518646-54.067279 130.59193-36.037159 36.002038-83.296984 54.066275-130.521688 54.066275-47.230725 0-94.490549-18.064237-130.527709-54.066275-36.067263-36.07228-54.067279-83.304008-54.067279-130.59193 0-47.225707 18.001019-94.450411 54.067279-130.521688 36.037159-36.003042 83.296984-54.067279 130.527709-54.067279 47.225707 0 94.484529 18.064237 130.521688 54.067279C659.838349 436.706591 677.845389 483.932298 677.845389 531.157002L677.845389 531.157002zM428.635784 469.570818c-35.016643 35.016643-35.016643 91.865505 0 126.880142 35.021661 35.016643 91.808308 35.016643 126.887166 0 35.021661-35.016643 35.021661-91.865505 0-126.880142C520.443089 434.548154 463.658448 434.548154 428.635784 469.570818z" p-id="8962"></path></svg>