<svg t="1700099318078" class="icon" viewBox="0 0 1024 1024" version="1.1" xmlns="http://www.w3.org/2000/svg" p-id="4522" width="200" height="200"><path d="M563.61907 756.78A103.407 103.407 0 0 1 475.00007 653.033v-35.265H228.37007a65.354 65.354 0 0 1-64.5-51.191l9.84-39.36 26.107-70.304 0.512-1.479c2.446-14.276 8.361-16.722 16.722-27.53h273.989a329.389 329.389 0 0 1 34.468-74.227H253.96707a104.772 104.772 0 0 0-106.82 91.007L111.71307 553.38a21.102 21.102 0 0 0-10.807-2.958H22.12707A22.07 22.07 0 0 0 0.00007 572.548v19.168a22.07 22.07 0 0 0 22.126 22.127l30.032 4.891a141.857 141.857 0 0 0-14.789 64.9L26.56307 811.499c0 3.924 0.512 7.394 0.512 11.375a37.2 37.2 0 0 0-0.512 7.395v153.574a39.816 39.816 0 0 0 39.36 39.816h59.554a39.816 39.816 0 0 0 39.36-39.816v-49.2h435.128l-36.403-177.521z m-371.65 104.716a60.008 60.008 0 1 1 59.04-60.008 59.439 59.439 0 0 1-59.04 60.064z m594.105-582.161a244.581 244.581 0 0 0-237.756 250.27v123.94a29.236 29.236 0 0 0 28.44 29.975h46.755l63.477 316.192a29.35 29.35 0 0 0 28.042 24.117h143.734a28.838 28.838 0 0 0 28.041-24.117l63.023-315.68h45.503a29.236 29.236 0 0 0 28.44-29.976v-123.94a244.581 244.581 0 0 0-237.756-250.781z m0.512-18.714a130.31 130.31 0 1 0-127.979-130.31 129.458 129.458 0 0 0 128.206 130.31z" p-id="4523" fill="#000000"></path></svg>