<svg t="1735281028573" class="icon" viewBox="0 0 1024 1024" version="1.1" xmlns="http://www.w3.org/2000/svg" p-id="104538" width="200" height="200"><path d="M250.794909 776.649803a437.514533 437.514533 0 0 1-35.785896-34.316119l-8.30744-7.955971A448.122495 448.122495 0 0 1 96.627991 439.7192C96.627991 196.886332 289.744023 0 527.975847 0S959.323702 196.854381 959.323702 439.7192c0 152.537383-76.204788 286.926203-191.901868 365.814933l-224.077223 209.85872a31.951693 31.951693 0 0 1-43.96553-0.287565l-248.584172-238.455485z" fill="" p-id="104539"></path><path d="M271.56351 752.366516l249.926143 239.701601 224.077223-209.85872 3.834203-3.099314C859.762227 703.927749 927.372009 577.750513 927.372009 439.7192 927.372009 214.363909 748.442528 31.951693 527.975847 31.951693S128.579684 214.39586 128.579684 439.7192a410.898772 410.898772 0 0 0 102.469079 272.7077l6.03887 6.837662c11.790175 12.525064 22.845461 23.164977 34.475877 33.101954z m-20.768601 24.283287a437.514533 437.514533 0 0 1-35.785896-34.316119l-8.30744-7.955971A448.122495 448.122495 0 0 1 96.627991 439.7192C96.627991 196.886332 289.744023 0 527.975847 0S959.323702 196.854381 959.323702 439.7192c0 152.537383-76.204788 286.926203-191.901868 365.814933l-224.077223 209.85872a31.951693 31.951693 0 0 1-43.96553-0.287565l-248.584172-238.455485z" fill="" p-id="104540"></path></svg>