<?xml version="1.0" standalone="no"?><!DOCTYPE svg PUBLIC "-//W3C//DTD SVG 1.1//EN" "http://www.w3.org/Graphics/SVG/1.1/DTD/svg11.dtd"><svg t="1720604337605" class="icon" viewBox="0 0 1024 1024" version="1.1" xmlns="http://www.w3.org/2000/svg" p-id="2419" xmlns:xlink="http://www.w3.org/1999/xlink" width="200" height="200"><path d="M219.704889 938.993778A90.680889 90.680889 0 0 1 128 848.071111V395.477333a90.638222 90.638222 0 0 1 91.704889-90.936889h580.067555a90.197333 90.197333 0 0 1 89.6 90.936889v452.579556a90.652444 90.652444 0 0 1-91.704888 90.936889H219.704889z m336.967111-141.681778c17.123556-4.124444 33.621333-10.524444 49.038222-19.057778a52.224 52.224 0 0 1 8.533334-54.968889 48.782222 48.782222 0 0 1 55.466666-8.462222 193.024 193.024 0 0 0 19.2-48.64 48.568889 48.568889 0 0 1-32-44.416 50.929778 50.929778 0 0 1 32-44.401778 193.137778 193.137778 0 0 0-19.2-48.64 53.418667 53.418667 0 0 1-55.466666-8.448 47.786667 47.786667 0 0 1-8.533334-54.983111 195.754667 195.754667 0 0 0-49.038222-19.029333 48.099556 48.099556 0 0 1-44.8 31.715555 51.342222 51.342222 0 0 1-44.771556-31.715555 195.896889 195.896889 0 0 0-49.052444 19.029333c7.964444 18.446222 4.650667 39.822222-8.533333 54.983111a51.996444 51.996444 0 0 1-55.466667 8.448 193.166222 193.166222 0 0 0-19.2 48.64 47.701333 47.701333 0 0 1 32 44.401778 50.929778 50.929778 0 0 1-32 44.416 193.052444 193.052444 0 0 0 19.2 48.64 53.390222 53.390222 0 0 1 55.466667 8.462222 47.772444 47.772444 0 0 1 8.533333 54.983111c15.416889 8.519111 31.914667 14.933333 49.066667 19.043556a48.085333 48.085333 0 0 1 44.757333-31.729778 51.342222 51.342222 0 0 1 44.8 31.715556z m-98.56-164.835556a62.577778 62.577778 0 0 1 61.155556-61.155555 61.155556 61.155556 0 0 1 61.155555 61.155555 62.577778 62.577778 0 0 1-61.155555 61.155556 62.577778 62.577778 0 0 1-61.184-61.169778h0.014222z m-236.088889-356.337777l-4.394667-15.288889a80.526222 80.526222 0 0 1 61.155556-98.375111l312.604444-74.325334a86.755556 86.755556 0 0 1 104.931556 59.022223l34.986667 128.967111H222.008889z"  p-id="2420"></path></svg>