<svg t="1689923278122" class="icon" viewBox="0 0 1024 1024" version="1.1" xmlns="http://www.w3.org/2000/svg" p-id="4041" width="200" height="200"><path d="M976.8 247.2l-218 118.8v-140c0-35.6-28.4-63.6-63.6-63.6H77.6c-35.6 0-64 28.4-64 63.6V804c0 35.6 28.4 63.6 64 63.6H696c35.6 0 63.6-28.4 63.6-63.6v-140.4l216 118.4s12.8 5.2 24-1.2c13.6-8.4 13.6-20.4 13.6-20.4V264s-3.6-12.4-15.2-16c-12-4-21.2-0.8-21.2-0.8zM513.6 524c-1.2 1.6-3.2 3.6-4.8 4.8l-180.4 115.6c-3.2 1.2-5.2 3.2-8.4 3.2-8.4 0-15.2-6.8-15.2-15.6v-231.6c0-8.4 6.4-15.6 15.2-15.6 3.2 0 6 0.4 8.4 3.2l180.4 115.6c7.6 2.4 9.6 12.4 4.8 20.4z" p-id="4042" fill="#000000"></path></svg>