<svg t="1689665578611" class="icon" viewBox="0 0 1024 1024" version="1.1" xmlns="http://www.w3.org/2000/svg" p-id="23394" width="200" height="200"><path d="M198 928.29H98V176.62c0-26.69 21.64-48.32 48.32-48.32h3.35c26.69 0 48.32 21.64 48.32 48.32v751.67zM370.28 928.29h-70V226.78c0-19.33 15.67-35 35-35s35 15.67 35 35v701.51zM542.56 928.29h-70V226.78c0-19.33 15.67-35 35-35s35 15.67 35 35v701.51zM714.84 928.29h-70V226.78c0-19.33 15.67-35 35-35s35 15.67 35 35v701.51zM887.12 928.29h-70V226.78c0-19.33 15.67-35 35-35s35 15.67 35 35v701.51z" fill="#000000" p-id="23395"></path><path d="M920.27 462.1H191.95v-80h728.32c22.09 0 40 17.91 40 40s-17.91 40-40 40zM920.27 831.72H191.95v-80h728.32c22.09 0 40 17.91 40 40s-17.91 40-40 40z" fill="#000000" p-id="23396"></path></svg>