<svg t="1730968470603" class="icon" viewBox="0 0 1024 1024" version="1.1" xmlns="http://www.w3.org/2000/svg" p-id="12256" width="200" height="200"><path d="M188.9 259.9h646.2c13 0 23.6-11.3 23.6-25.1s-10.6-25.1-23.6-25.1H188.9c-13 0-23.6 11.3-23.6 25.1s10.6 25.1 23.6 25.1z m123.4-88.6h399.4c13 0 23.6-11.3 23.6-25.1 0-13.9-10.6-25.1-23.6-25.1H312.3c-13 0-23.6 11.3-23.6 25.1-0.1 13.8 10.6 25.1 23.6 25.1z m541.5 125.3H170.2c-69.8 0-91.7 21.9-91.7 92V811c0 70 21.9 92 91.7 92h163.4c90.2-10.7 95.4-132.9 95.4-132.9v-88.7h-65.7c-21.3 0-33-24.8-19.5-41.3l149.9-183.2c10.1-12.3 29-12.3 39 0l149.9 183.2c13.5 16.5 1.7 41.3-19.5 41.3h-68.3v88.5c0 0.2 4.9 115.1 85.9 133.1h172.9c69.8 0 91.7-21.9 91.7-92V388.5c0.2-69.9-21.8-91.9-91.5-91.9z m0 0" fill="#13227a" p-id="12257"></path></svg>