<svg t="1689665397288" class="icon" viewBox="0 0 1024 1024" version="1.1" xmlns="http://www.w3.org/2000/svg" p-id="19696" width="200" height="200"><path d="M881.344 355.968h-71.296c0.768-7.808 1.792-15.552 1.792-23.616a300.032 300.032 0 1 0-600.064 0c0 8.064 1.152 15.808 1.792 23.616h-71.04c-37.888 0-68.608 30.72-68.608 68.608v498.496c0 37.888 30.72 68.608 68.608 68.608h738.88c37.888 0 68.48-30.72 68.48-68.608V424.576a68.48 68.48 0 0 0-68.544-68.608z m-573.376-23.68a204.032 204.032 0 0 1 408.064 0c0 8.128-1.344 15.808-2.368 23.616H310.4c-1.024-7.808-2.432-15.488-2.432-23.616z" fill="#000000" p-id="19697"></path><path d="M511.936 530.944c-46.144 0-83.392 37.248-83.392 83.392 0 33.216 19.52 61.632 47.744 75.008v91.712c0 19.84 15.872 35.84 35.648 35.84a35.84 35.84 0 0 0 35.84-35.84v-91.712a83.136 83.136 0 0 0-35.84-158.4z" fill="#000000" p-id="19698"></path></svg>