<svg t="1735265703046" class="icon" viewBox="0 0 1024 1024" version="1.1" xmlns="http://www.w3.org/2000/svg" p-id="101999" width="200" height="200"><path d="M442.965333 65.109333a85.333333 85.333333 0 0 1 138.069334 0l143.317333 197.269334 203.989333 66.282666a106.666667 106.666667 0 0 1 69.845334 129.834667l-1.365334 4.565333a106.666667 106.666667 0 0 1-15.146666 29.738667l-126.08 173.482667v243.861333a85.333333 85.333333 0 0 1-81.066667 85.248l-4.266667 0.085333a85.333333 85.333333 0 0 1-26.368-4.16L512 915.946667l-231.893333 75.370666a85.333333 85.333333 0 0 1-106.069334-50.645333l-1.472-4.138667a85.333333 85.333333 0 0 1-4.181333-26.389333V666.282667L42.325333 492.8a106.666667 106.666667 0 0 1 19.605334-145.941333l3.989333-3.050667a106.666667 106.666667 0 0 1 29.738667-15.146667l203.968-66.282666zM618.666667 512a42.666667 42.666667 0 0 0-42.666667 42.666667l-0.106667 3.754666A64 64 0 0 1 448 554.666667l-0.106667-3.2A42.666667 42.666667 0 0 0 362.666667 554.666667a149.333333 149.333333 0 0 0 298.666666 0 42.666667 42.666667 0 0 0-42.666666-42.666667z" fill="" p-id="102000"></path></svg>