<svg t="1729145961917" class="icon" viewBox="0 0 1024 1024" version="1.1" xmlns="http://www.w3.org/2000/svg" p-id="5388" width="200" height="200"><path d="M512 0C229.23 0 0 229.23 0 512s229.23 512 512 512 512-229.23 512-512S794.77 0 512 0z m345 492.25a30 30 0 0 0 0 60v46.5a30 30 0 0 0 0 60 120 120 0 0 1-120 117.5H287a120 120 0 0 1-120-117.5 30 30 0 0 0 0-60v-46.5a30 30 0 0 0 0-60v-46.5a30 30 0 0 0 0-60 120 120 0 0 1 120-117.5h450a120 120 0 0 1 120 117.5 30 30 0 0 0 0 60z" p-id="5389"></path><path d="M599.65 442h-27v-22.4a24.38 24.38 0 0 0-24.35-24.4 25 25 0 0 0-25 25V442h-98.87a25 25 0 0 0-25 25 20.48 20.48 0 0 0 20.48 20.48h72.53a5 5 0 0 1 3.73 8.34c-24.12 27-52.86 50.64-81.1 68.9a25 25 0 0 0-5.2 37.4l0.33 0.38a20 20 0 0 0 25.3 4.15 457.91 457.91 0 0 0 79.37-59.88 5 5 0 0 1 8.43 3.63V597c0 5.2-1.73 6.5-7.36 6.5-2 0.16-5.52 0.26-9.9 0.28a25 25 0 0 0-24.52 28.91l0.06 0.38a10.63 10.63 0 0 0 10.34 9c24.22 0.41 50.37 1.85 63.08-5.08 15.16-7.8 17.67-16.15 17.67-39.53v-105a5 5 0 0 1 5-5h26.5A20.48 20.48 0 0 0 624.65 467a25 25 0 0 0-25-25z" p-id="5390"></path><path d="M645.45 335H378.19a50.66 50.66 0 0 0-50.66 50.66v272a50.66 50.66 0 0 0 50.59 50.66h267.75a50.67 50.67 0 0 0 50.6-50.73l-0.36-271.95A50.66 50.66 0 0 0 645.45 335z m-5.21 276.34A50.66 50.66 0 0 1 589.58 662H431.47a50.66 50.66 0 0 1-50.66-50.66V432.87a50.66 50.66 0 0 1 50.66-50.66h158.11a50.66 50.66 0 0 1 50.66 50.66z" p-id="5391"></path></svg>