<svg t="1729145935536" class="icon" viewBox="0 0 1025 1024" version="1.1" xmlns="http://www.w3.org/2000/svg" p-id="5234" width="200" height="200"><path d="M1021.120052 519.30043c3.859809-4.034033 3.859809-10.548118 0-14.547072l-69.397053-71.570754c-3.857471-4.000123-5.385726-11.513947-3.300891-16.683356l36.828964-92.633081c2.042741-5.197471-0.470052-11.254366-5.588012-13.42339l-91.570201-39.458685c-5.128483-2.202933-9.339078-8.547472-9.429113-14.146008l-1.542287-99.655805c-0.084189-5.599705-4.712218-10.203179-10.268659-10.287368l-99.688545-1.542287c-5.557611-0.056126-11.90215-4.311153-14.155362-9.429113l-39.443484-91.543308c-2.184224-5.140176-8.216564-7.626076-13.37311-5.598536l-92.684529 36.830133c-5.11796 2.056772-12.659847 0.570611-16.647108-3.28686L519.302768 2.89398c-4.014155-3.85864-10.598397-3.85864-14.542395 0L433.161557 72.323773c-3.97206 3.857471-11.471853 5.343632-16.674001 3.28686l-92.656467-36.830133c-5.184609-2.028709-11.198241 0.486422-13.400004 5.598536l-39.444654 91.543308c-2.212287 5.11796-8.570858 9.372987-14.127299 9.429113l-99.674514 1.542287c-5.599705 0.057295-10.212533 4.688832-10.296722 10.259305l-1.557487 99.683868c-0.033909 5.599705-4.273736 11.943075-9.415081 14.146008l-91.586571 39.458685c-5.086389 2.169023-7.599182 8.225919-5.556441 13.396496l36.841826 92.661144c2.045079 5.169408 0.530855 12.683232-3.312584 16.683356L2.871763 504.753357c-3.828238 4.000123-3.828238 10.514209 0 14.547072l69.428624 71.569584c3.844608 3.97206 5.357663 11.487054 3.312584 16.656462l-36.841826 92.661144c-2.042741 5.169408 0.471222 11.226303 5.556441 13.395327l91.586571 39.457516c5.141345 2.202933 9.381172 8.542795 9.415081 14.117945l1.557487 99.711931c0.084189 5.571642 4.698186 10.141207 10.296722 10.258136l99.646451 1.542287c5.556441 0.058464 11.943075 4.312322 14.154193 9.430282l39.444654 91.570201c2.201763 5.113282 8.216564 7.626076 13.400004 5.570473l92.656467-36.828964c5.174085-2.056772 12.701941-0.570611 16.674001 3.288029l71.598817 69.428624c3.942828 3.8259 10.52824 3.8259 14.542395 0l71.529829-69.428624c4.014155-3.85864 11.556042-5.343632 16.674001-3.288029l92.684529 36.828964c5.155377 2.056772 11.187717-0.45719 13.37311-5.570473l39.443484-91.570201c2.226318-5.11796 8.570858-9.372987 14.155362-9.430282l99.688545-1.514224c5.556441-0.146161 10.184471-4.715726 10.240596-10.287368l1.571519-99.683868c0.056126-5.604382 4.301799-11.944244 9.429113-14.147177l91.570201-39.457516c5.11796-2.169023 7.630753-8.225919 5.588012-13.395327l-36.828964-92.661144c-2.084835-5.169408-0.55658-12.655169 3.300891-16.656462L1021.120052 519.30043zM324.558384 401.469261c-2.571257-13.688817-12.783791-24.688279-33.557305-20.745451-21.414282 4.113544-33.938492 19.456899-29.900951 40.914445 11.759497 61.457609 100.358546 48.231829 117.061779 135.402011 10.556303 55.170365-23.372834 98.486521-86.400793 110.458828-31.245629 5.9996-87.613341 9.886303-98.387131-46.429961-7.027402-36.741267 16.641261-61.542967 46.753853-67.316896 17.614106-3.338308 29.661248 0.45836 35.519365 13.915658-31.217566 8.774313-42.717482 24.774806-37.576137 51.74553 4.971799 26.169763 27.500409 33.655525 45.872212 30.140654 30.872627-5.858117 37.873135-35.225874 32.344756-64.05576-13.985816-73.543337-101.499768-73.515274-112.585757-131.745658-7.871625-41.08516 32.557566-81.59971 79.141873-90.458211 20.740774-3.943998 66.259862-9.457176 74.599201 34.400359 4.301799 22.230443-4.52864 41.717743-24.901089 45.599769-6.282567 1.25932-12.924105 0.090035-19.184456-4.797576C322.717929 430.182219 326.986988 414.441307 324.558384 401.469261M788.734051 541.526195c18.34374-3.540594 31.941353-17.028295 45.259507-34.543012 8.042341 42.255614-23.874457 59.683804-63.04316 67.086546-27.430252 5.230211-48.456332-6.571381-60.372513-26.401282-15.732727 22.146254-34.98734 44.659664-53.000172 48.056436-25.600322 4.944905-44.329926-1.570349-52.87272-21.451699-14.713111 19.542257-31.686449 37.598353-47.656541 40.682926-25.429606 4.74145-44.443346-1.25932-53.401237-20.683479-8.628153 18.311-23.141316 37.712943-47.070729 42.225213-37.546904 7.199287-53.57663-17.315939-58.015235-40.371897-12.759236-67.282986-3.900734-152.485262 74.325589-167.428722 9.372987-1.739896 19.845102 0.316876 28.07102 4.830316l0.34377-10.62646 56.358358-10.801853-2.815638 138.345101c0.056126 4.485377 0.056126 8.914627 0.757697 12.45756 1.642845 8.59892 6.78419 14.112098 22.444422 11.139776 7.400404-1.400803 14.985554-8.112498 22.325155-16.286968-0.611536-4.797576-0.999739-9.94009-0.943613-15.82627l4.688832-211.547007 56.37239-18.910843-4.701694 219.741355c-0.071326 6.089635-0.126283 9.772882 0.401065 12.91592 1.669739 8.597751 7.085866 13.626845 22.357895 10.77379 8.628153-1.689617 17.429359-10.372726 25.858733-20.344386-1.315445-3.712479-2.429774-7.599182-3.18864-11.599305-9.472376-49.660695-4.972968-140.859063 66.187366-154.429783 32.141301-6.145761 52.571045 3.712479 57.839842 31.057374 9.060788 47.712667-36.895613 84.915801-73.184367 96.655421 0.388203 6.400665 1.170454 12.373372 2.086004 17.061035C759.035386 539.068359 773.408235 544.413159 788.734051 541.526195M751.633813 476.870592c35.900551-7.286983 55.443978-42.943154 50.528304-70.830596-1.584381-8.231765-6.11419-21.485608-17.915782-19.316585C762.435666 390.955052 752.837007 438.46894 751.633813 476.870592M500.66203 453.413569c-7.288152-4.287767-15.013617-4.458483-20.513933-3.40145-29.372434 5.570473-40.928476 72.254785-30.745175 125.43035 4.385987 23.458192 18.174194 25.281107 27.999694 23.513148 8.985954-1.774974 15.887073-12.00037 21.273968-24.400635-0.35897-4.000123-0.415096-8.457437-0.189424-13.316985L500.66203 453.413569z" fill="" p-id="5235"></path></svg>