<svg t="1689923351425" class="icon" viewBox="0 0 1024 1024" version="1.1" xmlns="http://www.w3.org/2000/svg" p-id="5314" width="200" height="200"><path d="M228.799929 207.200255h74.399976a47.999985 47.999985 0 1 1 0 95.99997h-239.999925v-239.999925a47.999985 47.999985 0 1 1 95.99997 0v77.679976A510.87984 510.87984 0 0 1 511.99984 0.00032c282.767912 0 511.99984 229.231928 511.99984 511.99984 0 282.767912-229.231928 511.99984-511.99984 511.99984C229.231928 1024 0 794.768072 0 512.00016a47.999985 47.999985 0 0 1 95.99997 0c0 229.759928 186.239942 415.99987 415.99987 415.99987s415.99987-186.239942 415.99987-415.99987S741.759768 96.00029 511.99984 96.00029a414.92787 414.92787 0 0 0-283.199911 111.199965zM511.99984 752.000085c-132.543959 0-239.999925-107.455966-239.999925-239.999925 0-132.543959 107.455966-239.999925 239.999925-239.999925 132.543959 0 239.999925 107.455966 239.999925 239.999925 0 132.543959-107.455966 239.999925-239.999925 239.999925z m0-95.99997a143.999955 143.999955 0 1 0 0-287.99991 143.999955 143.999955 0 0 0 0 287.99991z" fill="#000000" p-id="5315"></path></svg>