<svg t="1698042826585" class="icon" viewBox="0 0 1024 1024" version="1.1" xmlns="http://www.w3.org/2000/svg" p-id="8982" width="200" height="200"><path d="M567 390.7c0 30.6-24.8 55.5-55.5 55.5-30.6 0-55.5-24.8-55.5-55.5 0-30.6 24.8-55.5 55.5-55.5s55.5 24.9 55.5 55.5z" p-id="8983" fill="#000000"></path><path d="M869.9 62.2H153.1c-33 0-59.7 26.7-59.7 59.7v776.5c0 33 26.7 59.7 59.7 59.7h716.8c33 0 59.7-26.7 59.7-59.7V121.9c0.1-33-26.7-59.7-59.7-59.7zM589.1 838.7H230.7v-128h358.4v128z m-77.6-264.5c-101.3 0-183.5-82.1-183.5-183.5 0-101.3 82.1-183.5 183.5-183.5 101.3 0 183.5 82.1 183.5 183.5 0 101.3-82.1 183.5-183.5 183.5zM828 838.7H708.6v-128H828v128z" p-id="8984" fill="#000000"></path></svg>