<svg t="1698040816144" class="icon" viewBox="0 0 1024 1024" version="1.1" xmlns="http://www.w3.org/2000/svg" p-id="6821" width="200" height="200"><path d="M262.7584 52.1216h502.6816c115.712 0 209.408 93.7984 209.408 209.408v502.6816c0 115.712-93.7984 209.408-209.408 209.408H262.7584c-115.712 0-209.408-93.7984-209.408-209.408V261.5296c0-115.6096 93.7984-209.408 209.408-209.408z m45.568 502.6816c-23.1424 0-41.8816 18.7392-41.8816 41.8816v125.6448c0 23.1424 18.7392 41.8816 41.8816 41.8816h125.6448c23.1424 0 41.8816-18.7392 41.8816-41.8816V596.6848c0-23.1424-18.7392-41.8816-41.8816-41.8816H308.3264z m293.1712 0c-23.1424 0-41.8816 18.7392-41.8816 41.8816v125.6448c0 23.1424 18.7392 41.8816 41.8816 41.8816h125.6448c23.1424 0 41.8816-18.7392 41.8816-41.8816V596.6848c0-23.1424-18.7392-41.8816-41.8816-41.8816H601.4976zM664.3712 471.04c57.856 0 104.7552-46.8992 104.7552-104.7552s-46.8992-104.7552-104.7552-104.7552-104.7552 46.8992-104.7552 104.7552S606.5152 471.04 664.3712 471.04z m-262.144-196.096c-16.384-16.384-42.9056-16.384-59.2896 0l-67.8912 67.8912a41.7792 41.7792 0 0 0 0 59.1872l67.8912 67.8912c16.384 16.384 42.9056 16.384 59.2896 0l67.8912-67.8912a41.7792 41.7792 0 0 0 0-59.1872l-67.8912-67.8912z" fill="#000000" p-id="6822"></path></svg>