<svg t="1698903388083" class="icon" viewBox="0 0 1376 1024" version="1.1" xmlns="http://www.w3.org/2000/svg" p-id="1522" width="200" height="200"><path d="M801.438069 505.419794h-144.314599a190.882209 190.882209 0 0 1-21.596573 24.896049c-8.286185 8.286185-15.747501 16.609864-22.383948 23.246311h216.453151c3.33697 0 6.636447 0 9.935923 0.82487-5.774084-7.461316-12.410531-14.922632-19.084471-23.246311a619.289224 619.289224 0 0 1-19.009483-25.720919z m521.7672-128.379627c36.781663-21.971513 37.831496-38.806342 37.831496-68.089195V104.720882c0-56.391051-50.766944-102.133792-113.419501-102.133793H113.497239C50.882175 2.587089 0.077738 48.292336 0.077738 104.720882V308.950972c0 30.520157 2.362125 50.879426 37.794002 68.089195 51.629307 21.634067 113.419501 65.389623 113.419501 136.140896 0 91.822928-64.077331 121.668192-111.169858 135.990919-33.14474 18.672037-40.006151 49.417158-40.006151 68.239171v204.23009c0 56.428545 50.766944 102.133792 113.419501 102.133793h1134.120025c62.652558 0 113.419501-45.705247 113.419501-102.133793v-204.23009c0-37.194098-9.485995-48.967229-37.831496-68.089195-82.561898-38.318919-113.419501-72.438505-113.419502-136.140895 0-63.702391 28.870419-95.422357 113.382008-136.140896z m-301.977079 271.081982c-7.461316 12.448025-14.922632 19.084471-24.033686 19.90934-9.148548 0.824869-22.383948-4.16184-41.46842-14.922632-9.973417-5.811578-19.909341-11.623156-29.845263-18.259602a370.553696 370.553696 0 0 1-29.020395-21.559079v9.973417c0 9.111054-0.824869 20.73421-1.687232 33.182235-0.824869 13.272894-1.649738 26.545787-3.299477 39.818681-1.687232 13.272894-2.512101 25.720918-4.986708 37.344074a272.581744 272.581744 0 0 1-4.986709 27.370656 180.721321 180.721321 0 0 1-14.922632 39.818681 66.364469 66.364469 0 0 1-19.084471 24.896049 61.490242 61.490242 0 0 1-26.545788 13.272894c-10.760792 2.512101-23.246311 3.33697-37.344074 3.336971s-28.195526-1.649738-41.468419-4.16184c-14.097763-2.512101-29.845264-7.461316-48.929735-13.272894-16.609864-5.811578-27.370657-13.272894-30.707627-20.734209-4.124346-7.461316-4.124346-18.259602 0-30.707627 5.811578-15.784995 13.272894-24.07118 23.246311-25.720919 9.973417-1.649738 23.246311 0.824869 38.993812 6.636447 15.747501 5.811578 28.195526 10.798286 38.168943 14.097763 9.935923 3.299476 18.222108 4.16184 24.896049 3.299476a17.922156 17.922156 0 0 0 14.097763-8.286185c3.299476-4.986709 4.986709-12.448025 6.636447-21.559078 2.474607-18.259602 4.986709-37.344074 7.461316-57.253415 2.474607-19.084471 4.124346-38.168943 4.124345-55.603676 0-1.649738-0.824869-2.474607-3.33697-2.474607-2.474607-0.824869-9.111054-0.824869-19.909341-0.824869h-92.872762c-17.434733 55.603676-45.630259 102.058804-86.236315 140.227747-40.64355 37.344074-92.910256 63.889861-158.412361 79.637362-19.084471 4.986709-33.182234 4.16184-41.468419-0.824869-8.286185-5.811578-13.272894-14.922632-14.922632-27.370657-2.474607-21.559079 10.760792-36.519205 39.818681-43.98052a405.198199 405.198199 0 0 0 65.502105-22.383948 275.018857 275.018857 0 0 0 52.266706-31.532496c14.922632-11.623156 28.195526-25.720918 39.818681-41.505914 11.623156-15.747501 20.73421-33.182234 29.020395-52.266705h-39.818681c-10.760792 0-19.084471-1.649738-24.033686-4.16184a20.996668 20.996668 0 0 1-10.760793-14.922632 479.92384 479.92384 0 0 1-45.630259 31.532496c-15.747501 9.973417-33.182234 19.084471-50.579473 28.195526-9.935923 4.986709-17.397239 9.111054-24.033686 11.623155a48.742265 48.742265 0 0 1-17.434734 3.336971 31.869943 31.869943 0 0 1-13.272893-4.986709 43.79305 43.79305 0 0 1-12.448025-12.448024 50.054557 50.054557 0 0 1-6.636447-16.609865 33.557175 33.557175 0 0 1 0-18.259602c1.649738-5.811578 4.124346-11.623156 9.111054-17.434733 4.986709-5.811578 11.623156-10.798286 20.73421-14.922632a625.963165 625.963165 0 0 0 77.95013-40.64355 399.161656 399.161656 0 0 0 66.364469-50.616968h-124.405258c-14.097763 0-24.07118-2.512101-29.845264-7.461316-5.811578-4.986709-9.111054-13.272894-9.111054-24.896049 0-14.097763 3.33697-23.246311 9.111054-27.370656 5.774084-4.16184 15.747501-6.636447 29.845264-6.636447h177.496832c3.299476-5.811578 6.636447-14.097763 9.935924-24.07118 3.33697-10.798286 6.636447-19.084471 9.935923-26.545788h-157.549998c-14.922632 0-24.896049-2.512101-30.670133-6.636447-4.986709-4.986709-8.286185-13.272894-8.286185-25.720918 0-7.461316 0.824869-13.272894 1.649738-17.434733a16.647358 16.647358 0 0 1 6.636447-9.973418c3.33697-2.474607 7.461316-3.299476 11.585661-4.161839 4.986709-0.824869 10.798286-0.824869 18.259603-0.824869h58.903152l-0.824869-1.649738a165.611219 165.611219 0 0 0-16.57237-17.434734c-5.811578-5.811578-13.272894-12.448025-21.559079-19.90934-10.760792-9.111054-15.747501-18.259602-14.097762-28.195526 0.824869-9.973417 6.636447-19.084471 16.57237-28.195525 7.461316-5.811578 14.922632-9.111054 24.033686-7.461316 9.111054 0.824869 17.434733 4.986709 24.896049 10.798286 4.16184 3.299476 8.323679 6.636447 13.272894 10.798286 4.986709 4.16184 9.111054 8.286185 14.097762 12.448025 4.986709 4.16184 9.148548 8.286185 13.272894 12.448025 4.124346 4.16184 7.461316 7.461316 9.935923 10.798286 8.286185 9.111054 13.272894 16.57237 14.922632 24.07118 1.687232 7.461316-1.649738 14.097763-8.286185 21.559079h56.391051c2.474607-10.798286 4.124346-22.383948 6.636447-34.831973 1.687232-12.448025 3.33697-24.896049 4.986709-38.168942 0.824869-9.111054 1.649738-17.434733 3.33697-23.246312 0.824869-5.811578 3.299476-10.798286 5.774084-14.922631a23.733734 23.733734 0 0 1 11.623156-7.461316c4.986709-1.649738 11.623156-1.649738 19.90934-1.649739 16.57237 0 28.195526 4.986709 33.182234 14.097763s7.461316 23.246311 4.986709 41.46842c-0.824869 9.973417-2.512101 20.73421-4.161839 31.532496a472.05009 472.05009 0 0 1-6.636447 33.182234h50.579473a25.720918 25.720918 0 0 1 1.687232-20.73421c3.299476-6.636447 9.111054-12.448025 17.434734-19.084471l33.969609-34.007104c4.16184-4.16184 8.323679-9.973417 14.097763-15.747501 7.461316-9.111054 15.784995-14.097763 24.896049-15.747501 9.111054-0.824869 19.084471 2.474607 29.882758 11.623156 10.760792 9.111054 15.747501 18.259602 14.097763 27.370656-1.687232 9.111054-5.811578 18.259602-14.097763 28.195526-5.811578 7.461316-11.623156 14.097763-16.57237 20.73421a331.822343 331.822343 0 0 1-16.57237 18.259602h64.677236v-0.937351c14.922632 0 24.896049 2.474607 30.670133 6.636447 4.986709 4.16184 8.286185 14.097763 8.286185 29.020394 0 12.448025-2.474607 20.73421-8.286185 24.07118-4.986709 4.16184-15.784995 5.811578-30.670133 5.811578h-224.77683c-2.474607 5.811578-4.986709 14.922632-8.286185 24.896049a127.47977 127.47977 0 0 1-9.973417 24.89605h273.706565c14.060269 0 24.033686 1.649738 29.845264 5.811577 5.811578 4.16184 9.111054 13.272894 9.111054 27.370657 0 11.623156-3.33697 19.909341-9.111054 24.896049-5.811578 4.986709-15.784995 8.286185-29.845264 8.286185h-86.273809a396.199627 396.199627 0 0 0 104.495917 78.849987c19.084471 9.935923 30.670133 19.909341 34.007104 29.882758 3.224488 10.760792 2.399619 21.559079-4.236828 34.007104z" fill="#000000" p-id="1523"></path></svg>