<svg t="1730796254992" class="icon" viewBox="0 0 1024 1024" version="1.1" xmlns="http://www.w3.org/2000/svg" p-id="3216" width="200" height="200"><path d="M0 821.90441v46.526359C0 938.35159 28.882051 1024 99.104821 1024h826.157948c69.77641 0 98.658462-85.64841 98.658462-155.569231v-46.526359c0 69.77641-43.953231 88.287179-113.795282 88.28718H113.80841C43.52 910.178462 0 891.75959 0 821.90441z m0-723.23282V682.272821c0 69.77641 43.52 114.176 113.80841 114.176h796.396308c69.842051 0 113.795282-44.39959 113.795282-114.176V98.67159C1023.921231 28.829538 995.039179 0 925.275897 0h-87.486359v105.61641c27.936821 16.384 46.592 46.08 46.592 80.528411 0 51.278769-41.905231 93.184-93.10523 93.184-51.2 0-93.105231-41.83959-93.105231-93.184 0-34.44841 18.57641-64.14441 46.513231-80.528411V0H279.236923v105.61641c27.871179 16.384 46.513231 46.08 46.513231 80.528411 0 51.278769-41.905231 93.184-93.105231 93.184-51.2 0-93.092103-41.83959-93.092102-93.184 0-34.44841 18.57641-64.14441 46.51323-80.528411V0h-87.04C28.895179 0 0 28.81641 0 98.67159z" p-id="3217"></path></svg>