<svg t="1689926002558" class="icon" viewBox="0 0 1024 1024" version="1.1" xmlns="http://www.w3.org/2000/svg" p-id="7263" width="200" height="200"><path d="M864.1 95.2H157.3c-52.1 0-94.7 42.6-94.7 94.7v640.8c0 52.1 42.6 94.7 94.7 94.7h706.8c52.1 0 94.7-42.6 94.7-94.7V189.9c0-52.1-42.6-94.7-94.7-94.7z m-77.6 327.1l-82.1 197.1c13.8 13.4 22.4 32.2 22.4 53 0 40.9-33.1 74-74 74s-74-33.1-74-74c0-9.7 1.9-19 5.3-27.5L433.2 494c-5.9 1.5-12.1 2.3-18.5 2.3-9.8 0-19.1-1.9-27.7-5.4l-78.5 89.4c1.4 5.7 2.2 11.7 2.2 17.9 0 40.9-33.1 74-74 74s-74-33.1-74-74 33.1-74 74-74c14.4 0 27.9 4.1 39.2 11.3l71.8-81.8c-4.5-9.6-7-20.2-7-31.5 0-40.9 33.1-74 74-74s74 33.1 74 74c0 14.5-4.2 28-11.4 39.4L621 605.3c9.6-4.6 20.3-7.1 31.7-7.1h1.8l81.1-194.7c-15.3-13.6-25-33.3-25-55.4 0-40.9 33.1-74 74-74s74 33.1 74 74c0.1 40.5-32.1 73.2-72.1 74.2z" p-id="7264" fill="#000000"></path></svg>