<svg t="1703231413332" class="icon" viewBox="0 0 1024 1024" version="1.1" xmlns="http://www.w3.org/2000/svg" p-id="3770" width="200" height="200"><path d="M512 85.333333a384 384 0 0 1 384 384 382.378667 382.378667 0 0 1-96 253.994667 42.666667 42.666667 0 1 0 64 56.448A467.712 467.712 0 0 0 981.333333 469.333333c0-259.2-210.133333-469.333333-469.333333-469.333333S42.666667 210.133333 42.666667 469.333333c0 118.997333 44.373333 227.754667 117.333333 310.442667a42.666667 42.666667 0 1 0 64-56.448A382.378667 382.378667 0 0 1 128 469.333333a384 384 0 0 1 384-384z" p-id="3771" fill="#000000"></path><path d="M512 256a213.333333 213.333333 0 0 0-159.018667 355.541333 42.666667 42.666667 0 1 1-63.573333 56.917334 298.666667 298.666667 0 1 1 445.226667 0 42.666667 42.666667 0 1 1-63.573334-56.917334A213.333333 213.333333 0 0 0 512 256z" p-id="3772" fill="#000000"></path><path d="M542.165333 627.498667a42.666667 42.666667 0 0 0-60.330666 0l-323.669334 323.669333c-26.88 26.88-7.850667 72.832 30.165334 72.832h647.338666c37.973333 0 57.045333-45.952 30.165334-72.832l-323.669334-323.669333z" p-id="3773" fill="#000000"></path></svg>