<svg t="1735282201061" class="icon" viewBox="0 0 1024 1024" version="1.1" xmlns="http://www.w3.org/2000/svg" p-id="109484" width="200" height="200"><path d="M512 0C229.23 0 0 229.23 0 512s229.23 512 512 512 512-229.23 512-512S794.77 0 512 0zM220.47 558a80.12 80.12 0 0 1-41.63-105.38A80.12 80.12 0 0 1 284.22 411l56.93 24.69-63.75 147z m604 174.71c-12 27.57-50.9 28.44-88.42 14.53l-429.3-151.87 63.65-146.79 412.37 213.15c35.8 17.87 53.63 43.36 41.67 70.94z m26.45-334.92a110 110 0 1 1-57.14-144.64 110 110 0 0 1 57.11 144.6z" p-id="109485"></path></svg>