<svg t="1729579259876" class="icon" viewBox="0 0 1024 1024" version="1.1" xmlns="http://www.w3.org/2000/svg" p-id="11601" width="200" height="200"><path d="M937.472 425.472h-90.112c-7.68-27.136-18.432-52.736-31.744-76.8l64-64c16.896-16.896 16.896-43.52 0-60.416l-69.632-69.632c-16.896-16.896-43.52-16.896-60.416 0l-64 64c-24.064-13.312-49.664-24.576-76.8-31.744V96.768c0-23.552-19.456-42.496-42.496-42.496H467.968c-23.552 0-42.496 19.456-42.496 42.496v90.112c-27.136 7.68-52.736 18.432-76.8 31.744L284.672 155.136c-16.896-16.896-43.52-16.896-60.416 0L154.624 224.768c-16.896 16.896-16.896 43.52 0 60.416l64 64c-13.312 24.064-24.576 49.664-31.744 76.8H96.768c-23.552 0-42.496 19.456-42.496 42.496v98.304c0 23.552 19.456 42.496 42.496 42.496h90.112c7.68 27.136 18.432 52.736 31.744 76.8l-64 64c-16.896 16.896-16.896 43.52 0 60.416l69.632 69.632c16.896 16.896 43.52 16.896 60.416 0l64-64c24.064 13.312 49.664 24.576 76.8 31.744v90.112c0 23.552 19.456 42.496 42.496 42.496h98.304c23.552 0 42.496-19.456 42.496-42.496v-90.112c27.136-7.68 52.736-18.432 76.8-31.744l64 64c16.896 16.896 43.52 16.896 60.416 0l69.632-69.632c16.896-16.896 16.896-43.52 0-60.416L815.616 686.08c13.312-24.064 24.576-49.664 31.744-76.8h90.112c23.552 0 42.496-19.456 42.496-42.496V467.968c0-23.552-18.944-42.496-42.496-42.496zM517.12 705.024c-103.936 0-187.904-83.968-187.904-187.904S413.696 329.216 517.12 329.216s187.904 83.968 187.904 187.904-83.968 187.904-187.904 187.904z" p-id="11602"></path><path d="M423.424 517.12c0 51.712 41.984 93.696 93.696 93.696s93.696-41.984 93.696-93.696-41.984-93.696-93.696-93.696c-51.712 0-93.696 41.984-93.696 93.696z" p-id="11603"></path></svg>