<svg t="1698042877828" class="icon" viewBox="0 0 1024 1024" version="1.1" xmlns="http://www.w3.org/2000/svg" p-id="9193" width="200" height="200"><path d="M893.312 293.312l-162.592-162.592a64 64 0 0 0-45.312-18.688H144a32 32 0 0 0-32 32v736a32 32 0 0 0 32 32h736a32 32 0 0 0 32-32V338.528c0-16.992-6.688-33.184-18.688-45.184zM384 176h256V288h-256V176z m128 554.016c-79.488 0-144-64.512-144-144s64.512-144 144-144 144 64.512 144 144-64.512 144-144 144z m0-224a80 80 0 1 0 0 160 80 80 0 0 0 0-160z" p-id="9194" fill="#000000"></path></svg>