<svg t="1698903451612" class="icon" viewBox="0 0 1450 1024" version="1.1" xmlns="http://www.w3.org/2000/svg" p-id="1691" width="200" height="200"><path d="M1194.666667 217.6c8.533333 0 12.8 4.266667 21.333333 8.533333 4.266667 8.533333 8.533333 12.8 8.533333 21.333334s0 17.066667-4.266666 25.6c-4.266667 8.533333-12.8 12.8-21.333334 17.066666-8.533333 4.266667-17.066667 8.533333-21.333333 17.066667-4.266667 8.533333-8.533333 17.066667-8.533333 25.6 0 8.533333 0 17.066667 4.266666 25.6 4.266667 8.533333 12.8 12.8 25.6 17.066667 8.533333 4.266667 17.066667 8.533333 21.333334 17.066666 4.266667 8.533333 8.533333 17.066667 8.533333 25.6 0 8.533333 0 17.066667-4.266667 25.6-4.266667 8.533333-12.8 12.8-21.333333 17.066667-12.8 4.266667-21.333333 8.533333-29.866667 17.066667-8.533333 8.533333-8.533333 17.066667-12.8 29.866666 0 8.533333 4.266667 17.066667 8.533334 29.866667 4.266667 8.533333 12.8 17.066667 25.6 21.333333 8.533333 4.266667 17.066667 8.533333 21.333333 17.066667 4.266667 8.533333 8.533333 17.066667 8.533333 25.6 0 8.533333 0 17.066667-4.266666 25.6-4.266667 8.533333-8.533333 12.8-17.066667 17.066667-25.6 12.8-38.4 29.866667-38.4 46.933333 0 17.066667 8.533333 29.866667 29.866667 42.666667 8.533333 4.266667 17.066667 8.533333 21.333333 21.333333 4.266667 8.533333 8.533333 17.066667 8.533333 29.866667 0 8.533333 0 17.066667-4.266666 25.6-4.266667 8.533333-12.8 12.8-21.333334 17.066666-12.8 4.266667-21.333333 8.533333-29.866666 17.066667-8.533333 8.533333-8.533333 17.066667-8.533334 25.6 0 8.533333 0 17.066667 8.533334 29.866667 4.266667 8.533333 12.8 17.066667 25.6 25.6 8.533333 4.266667 12.8 12.8 17.066666 21.333333 4.266667 8.533333 4.266667 17.066667 4.266667 25.6 0 8.533333-4.266667 17.066667-8.533333 21.333333-4.266667 8.533333-12.8 8.533333-21.333334 8.533334H379.733333V217.6H1194.666667z m-908.8 0v789.333333H85.333333c-29.866667 0-46.933333-4.266667-59.733333-12.8-12.8-8.533333-17.066667-29.866667-17.066667-59.733333v-226.133333c0-12.8 0-21.333333 4.266667-25.6 4.266667-4.266667 12.8-8.533333 21.333333-12.8 4.266667 0 8.533333 0 17.066667-4.266667s12.8-8.533333 21.333333-17.066667 12.8-17.066667 17.066667-25.6c4.266667-12.8 8.533333-25.6 8.533333-38.4 0-25.6-4.266667-42.666667-21.333333-55.466666-12.8-12.8-25.6-21.333333-42.666667-25.6-12.8 0-21.333333-4.266667-25.6-8.533334-4.266667-4.266667-8.533333-12.8-8.533333-25.6V294.4c0-29.866667 4.266667-46.933333 12.8-59.733333 8.533333-12.8 29.866667-17.066667 64-17.066667h209.066667zM768 337.066667c-4.266667 34.133333-12.8 68.266667-25.6 102.4h-68.266667l29.866667-17.066667c-8.533333-21.333333-29.866667-51.2-51.2-72.533333l-42.666667 21.333333c17.066667 21.333333 34.133333 46.933333 42.666667 68.266667h-93.866667v46.933333h162.133334c-8.533333 17.066667-21.333333 34.133333-34.133334 51.2h-162.133333v51.2H640c-34.133333 34.133333-81.066667 64-136.533333 85.333333 12.8 12.8 29.866667 34.133333 34.133333 46.933334 25.6-12.8 51.2-25.6 72.533333-38.4v21.333333h85.333334c-12.8 64-46.933333 110.933333-153.6 136.533333 12.8 12.8 25.6 34.133333 29.866666 46.933334 128-34.133333 166.4-98.133333 183.466667-183.466667h132.266667c-4.266667 76.8-12.8 110.933333-21.333334 123.733333-4.266667 4.266667-12.8 8.533333-21.333333 4.266667-12.8 0-38.4 0-68.266667-4.266667 8.533333 12.8 12.8 38.4 17.066667 51.2h76.8c17.066667 0 29.866667-8.533333 42.666667-17.066666 17.066667-17.066667 25.6-64 34.133333-179.2 25.6 17.066667 55.466667 29.866667 85.333333 38.4 8.533333-12.8 21.333333-34.133333 34.133334-46.933334-64-17.066667-119.466667-46.933333-157.866667-85.333333h140.8v-51.2h-290.133333l25.6-51.2h221.866666v-46.933333h-85.333333c17.066667-21.333333 34.133333-46.933333 46.933333-72.533334l-51.2-17.066666c-12.8 25.6-34.133333 59.733333-51.2 85.333333h-64c12.8-29.866667 17.066667-64 25.6-98.133333H768zM1395.2 21.333333c8.533333 0 12.8 4.266667 17.066667 8.533334 4.266667 4.266667 8.533333 12.8 8.533333 17.066666v21.333334c0 8.533333-8.533333 17.066667-12.8 21.333333-4.266667 4.266667-12.8 12.8-17.066667 21.333333-4.266667 8.533333-8.533333 17.066667-8.533333 25.6 0 8.533333 0 17.066667 4.266667 25.6 4.266667 8.533333 8.533333 17.066667 17.066666 21.333334 12.8 4.266667 21.333333 17.066667 25.6 25.6 4.266667 12.8 8.533333 21.333333 8.533334 34.133333 0 12.8-4.266667 21.333333-8.533334 29.866667-4.266667 8.533333-12.8 17.066667-25.6 21.333333-12.8 4.266667-21.333333 8.533333-25.6 17.066667-4.266667 8.533333-8.533333 17.066667-8.533333 25.6 0 8.533333 0 17.066667 4.266667 25.6 4.266667 8.533333 12.8 17.066667 21.333333 21.333333 8.533333 4.266667 17.066667 12.8 21.333333 25.6 4.266667 8.533333 8.533333 21.333333 4.266667 29.866667 0 8.533333-4.266667 21.333333-8.533333 29.866666-4.266667 8.533333-12.8 12.8-21.333334 17.066667-8.533333 4.266667-12.8 8.533333-17.066666 12.8-4.266667 8.533333-4.266667 12.8-4.266667 21.333333s0 17.066667 4.266667 25.6c4.266667 8.533333 8.533333 12.8 17.066666 17.066667 8.533333 4.266667 12.8 8.533333 21.333334 17.066667 4.266667 8.533333 8.533333 21.333333 8.533333 29.866666 0 8.533333 0 21.333333-4.266667 29.866667-4.266667 8.533333-8.533333 17.066667-12.8 21.333333-21.333333 12.8-29.866667 25.6-29.866666 42.666667s8.533333 29.866667 29.866666 46.933333c4.266667 4.266667 8.533333 8.533333 12.8 17.066667 4.266667 8.533333 4.266667 17.066667 4.266667 25.6 0 8.533333 0 17.066667-4.266667 21.333333-4.266667 8.533333-12.8 8.533333-21.333333 8.533334h-93.866667v-4.266667c0-4.266667 4.266667-4.266667 8.533334-8.533333s4.266667-8.533333 8.533333-12.8c4.266667-12.8 4.266667-25.6 0-38.4-4.266667-8.533333-12.8-21.333333-25.6-25.6-8.533333-4.266667-12.8-12.8-17.066667-21.333334-4.266667-8.533333-4.266667-17.066667-4.266666-25.6 0-8.533333 0-17.066667 4.266666-25.6 4.266667-8.533333 8.533333-12.8 12.8-17.066666 8.533333-4.266667 12.8-8.533333 17.066667-17.066667 4.266667-8.533333 4.266667-17.066667 4.266667-25.6 0-8.533333 0-17.066667-4.266667-25.6-4.266667-8.533333-8.533333-12.8-12.8-17.066667-8.533333-4.266667-12.8-8.533333-21.333333-17.066666-4.266667-8.533333-8.533333-17.066667-8.533334-29.866667 0-8.533333 0-21.333333 4.266667-29.866667 4.266667-8.533333 8.533333-17.066667 21.333333-25.6 8.533333-4.266667 12.8-8.533333 17.066667-17.066666 12.8-4.266667 17.066667-12.8 17.066667-21.333334s0-17.066667-4.266667-25.6c-4.266667-8.533333-8.533333-12.8-21.333333-21.333333-8.533333-4.266667-17.066667-12.8-21.333334-21.333333-4.266667-8.533333-8.533333-21.333333-8.533333-29.866667 0-8.533333 4.266667-21.333333 8.533333-29.866667 4.266667-8.533333 12.8-17.066667 21.333334-21.333333 17.066667-8.533333 25.6-21.333333 25.6-38.4s0-29.866667-4.266667-46.933333c-4.266667-8.533333-8.533333-21.333333-17.066667-29.866667-8.533333-8.533333-21.333333-12.8-34.133333-12.8H524.8V21.333333h870.4zM844.8 588.8c17.066667 25.6 38.4 46.933333 64 64h-251.733333c25.6-21.333333 46.933333-42.666667 68.266666-64h119.466667zM430.933333 21.333333v128H140.8v-42.666666c0-21.333333 8.533333-38.4 25.6-59.733334 17.066667-17.066667 34.133333-25.6 51.2-25.6h213.333333z" fill="#000000" p-id="1692"></path></svg>