<svg t="1698040906135" class="icon" viewBox="0 0 1024 1024" version="1.1" xmlns="http://www.w3.org/2000/svg" p-id="7031" width="200" height="200"><path d="M511.953455-0.046545c-282.763636 0-512 229.236364-512 512.046545 0 282.763636 229.236364 512 512 512s512-229.236364 512-512c0-282.810182-229.236364-512.046545-512-512.046545z m0 967.121454A454.981818 454.981818 0 0 1 56.832 512a454.981818 454.981818 0 0 1 455.121455-455.121455A454.981818 454.981818 0 0 1 967.074909 512a454.981818 454.981818 0 0 1-455.121454 455.074909z m246.690909-626.082909a165.376 165.376 0 0 0-117.108364-48.034909c-41.565091 0-81.454545 15.36-112.267636 43.147636l-18.944 16.989091-18.944-16.989091a167.703273 167.703273 0 0 0-112.314182-43.147636c-44.218182 0-85.783273 17.128727-117.108364 48.034909A163.374545 163.374545 0 0 0 213.178182 457.867636c0 44.218182 17.314909 85.643636 48.872727 116.875637l224.674909 217.460363a33.373091 33.373091 0 0 0 47.010909 0.139637l224.907637-217.6a163.374545 163.374545 0 0 0 48.779636-116.875637 162.955636 162.955636 0 0 0-48.779636-116.875636z m-462.568728 128.977455h-0.232727a12.8 12.8 0 0 1-12.660364-13.125819 99.421091 99.421091 0 0 1 28.439273-67.537454c21.690182-21.690182 50.967273-26.996364 65.536-25.320727a12.939636 12.939636 0 0 1-2.978909 25.646545c-7.447273-0.884364-28.765091 2.466909-44.218182 17.873455a73.169455 73.169455 0 0 0-20.898909 49.710545 13.079273 13.079273 0 0 1-12.986182 12.753455z" fill="#000000" p-id="7032"></path></svg>