<svg t="1731390403865" class="icon" viewBox="0 0 1024 1024" version="1.1" xmlns="http://www.w3.org/2000/svg" p-id="8297" width="200" height="200"><path d="M512 512m-512 0a512 512 0 1 0 1024 0 512 512 0 1 0-1024 0Z" fill="#FFFFFF" p-id="8298"></path><path d="M349.696 828.928a124.416 124.416 0 0 1-124.416-124.416V298.496a124.416 124.416 0 0 1 124.416-123.904h290.304a124.416 124.416 0 0 1 124.416 124.416v406.016a124.416 124.416 0 0 1-124.416 124.416z" fill="#FFFFFF" p-id="8299"></path><path d="M640 195.072a102.4 102.4 0 0 1 102.4 102.4v406.016a102.4 102.4 0 0 1-102.4 102.4H349.696a102.4 102.4 0 0 1-102.4-102.4V298.496a102.4 102.4 0 0 1 102.4-102.4z m0-41.472H349.696A144.896 144.896 0 0 0 204.8 298.496v406.016a144.896 144.896 0 0 0 144.896 145.408h290.304a144.896 144.896 0 0 0 144.896-144.896V298.496A144.896 144.896 0 0 0 640 153.6z" fill="#43445D" p-id="8300"></path><path d="M625.664 268.288h-261.12a43.52 43.52 0 0 0-43.52 43.52v246.272a43.52 43.52 0 0 0 43.52 43.52h261.12a43.52 43.52 0 0 0 43.52-43.52V311.808a43.52 43.52 0 0 0-43.52-43.52zM495.104 645.12a57.856 57.856 0 1 0 57.856 57.856 57.856 57.856 0 0 0-57.856-57.856z" fill="#FFCD36" p-id="8301"></path></svg>