<svg t="1731391170199" class="icon" viewBox="0 0 1024 1024" version="1.1" xmlns="http://www.w3.org/2000/svg" p-id="84581" width="200" height="200"><path d="M308.565 512a203.435 203.435 0 1 0 406.87 0 203.435 203.435 0 1 0-406.87 0z" fill="#FFE55C" p-id="84582"></path><path d="M513.365 873.813c-110.592 0-318.805-182.954-322.218-356.352V301.056c1.365-19.115 14.336-35.499 32.768-40.96 1.365-0.683 2.73-0.683 4.096-0.683 45.056-3.413 88.746-14.336 130.389-31.402 0.683 0 1.365-0.683 2.048-0.683 44.373-12.97 86.016-35.499 120.15-66.219l1.365-1.365c8.192-6.144 18.432-9.557 28.672-10.24 10.922-0.683 21.162 2.048 30.72 8.192 0.682 0 0.682 0.683 1.365 1.365 34.816 27.99 73.045 50.518 114.688 68.267 43.008 12.97 88.064 23.21 132.437 30.72h1.366c20.48 4.779 36.181 22.528 38.229 43.69v1.366c1.365 21.163 6.144 98.304 0 215.723v1.365c-28.672 227.328-204.8 353.621-316.075 353.621zM232.107 303.787V517.46c2.73 153.6 197.29 315.392 281.258 315.392 84.651 0 248.491-105.813 275.115-317.44 6.144-114.688 1.365-189.098 0-209.578v-0.683c-0.683-3.413-2.73-6.144-6.144-7.51-46.421-6.826-92.843-17.749-137.899-31.402-0.682 0-1.365-0.683-2.048-0.683-44.373-18.432-86.016-43.69-124.245-73.728-0.683-0.682-2.048-0.682-2.73-0.682H512c-1.365 0-3.413 0.682-4.779 1.365-38.229 34.133-84.65 59.392-134.485 73.728-44.373 17.75-90.795 29.355-138.581 33.45l-2.048 4.097z" fill="#4D4D4D" p-id="84583"></path><path d="M468.992 633.515c-5.461 0-10.24-2.048-14.336-6.144l-74.41-73.728c-8.193-8.192-8.193-21.163 0-28.672 8.191-8.192 21.162-8.192 28.671 0l60.075 60.074 151.552-151.552c8.192-8.192 21.163-8.192 28.672 0 8.192 8.192 8.192 21.163 0 28.672L484.011 628.053c-4.096 4.096-9.558 5.462-15.019 5.462z" fill="#4D4D4D" p-id="84584"></path></svg>