<svg t="1715843022314" class="icon" viewBox="0 0 1064 1024" version="1.1" xmlns="http://www.w3.org/2000/svg" p-id="4731" width="200" height="200"><path d="M593.92 378.88a51.2 51.2 0 1 1 102.4 0v266.24a51.2 51.2 0 1 1-102.4 0v-266.24z" fill="#205ad3" p-id="4732"></path><path d="M51.2 307.2c0-118.784 96.256-215.04 215.04-215.04h532.48c118.784 0 215.04 96.256 215.04 215.04v62.2592c0 28.54912-16.46592 51.2-36.57728 63.11936A92.07808 92.07808 0 0 0 931.84 512c0 33.75104 18.10432 63.2832 45.34272 79.42144 20.11136 11.8784 36.57728 34.57024 36.57728 63.0784V716.8c0 118.784-96.256 215.04-215.04 215.04h-532.48a215.04 215.04 0 0 1-215.04-215.04v-62.2592c0-28.54912 16.46592-51.2 36.57728-63.11936A92.07808 92.07808 0 0 0 133.12 512c0-33.75104-18.10432-63.2832-45.34272-79.42144a73.60512 73.60512 0 0 1-36.57728-63.0784V307.2zM266.24 194.56A112.64 112.64 0 0 0 153.6 307.2v46.16192c49.47968 35.2256 81.92 93.10208 81.92 158.63808s-32.44032 123.45344-81.92 158.63808V716.8a112.64 112.64 0 0 0 112.64 112.64h532.48a112.64 112.64 0 0 0 112.64-112.64v-46.16192a194.3552 194.3552 0 0 1-81.92-158.63808c0-65.536 32.44032-123.45344 81.92-158.63808V307.2a112.64 112.64 0 0 0-112.64-112.64h-532.48z" fill="#205ad3" p-id="4733"></path></svg>