<svg t="1690771396956" class="icon" viewBox="0 0 1024 1024" version="1.1" xmlns="http://www.w3.org/2000/svg" p-id="4442" width="200" height="200"><path d="M833.45 65c-35.82 0-68.17 14.85-91.23 38.71A618.3 618.3 0 0 1 921.18 283c24.06-23.04 39.04-55.47 39.04-91.39C960.22 121.69 903.46 65 833.45 65zM282.41 103.32C259.34 79.68 227.13 65 191.48 65 121.3 65 64.41 121.89 64.41 192.07c0 35.64 14.68 67.85 38.32 90.93a620.255 620.255 0 0 1 179.68-179.68zM912 512c0-220.91-179.09-400-400-400S112 291.09 112 512c0 112.02 46.05 213.29 120.25 285.9l-81.22 81.22c-18.46 18.46-18.46 48.4 0 66.86s48.4 18.46 66.86 0l89.94-89.94C367.6 891.58 437.42 912 512 912c74.77 0 144.75-20.52 204.62-56.23l90.22 90.22c18.46 18.46 48.4 18.46 66.86 0s18.46-48.4 0-66.86l-81.58-81.58C866.1 724.95 912 623.84 912 512z m-401.42 47.18c-26.11 0-47.28-21.17-47.28-47.28v-224c0-26.11 21.17-47.28 47.28-47.28s47.28 21.17 47.28 47.28v176.72h176.72c26.11 0 47.28 21.17 47.28 47.28s-21.17 47.28-47.28 47.28h-224z" p-id="4443" fill="#000000"></path></svg>