<svg t="1715060733193" class="icon" viewBox="0 0 1030 1024" version="1.1" xmlns="http://www.w3.org/2000/svg" p-id="15030" width="200" height="200"><path d="M319.665406 1024m0-71.036757l0-461.738919q0-71.036757 71.036757-71.036757l568.294054 0q71.036757 0 71.036757 71.036757l0 461.738919q0 71.036757-71.036757 71.036757l-568.294054 0q-71.036757 0-71.036757-71.036757Z" fill="#5C97FF" opacity=".2" p-id="15031"></path><path d="M639.330812 846.408108h-568.294055a69.562744 69.562744 0 0 1-71.036757-67.822344L88.795946 473.465134h35.518378l-88.795946 303.682136a32.694667 32.694667 0 0 0 10.406885 23.850591A36.228746 36.228746 0 0 0 71.036757 810.889729h568.294055v35.518379z m230.869459-372.942974h-35.518378l88.795946-303.682135a32.712427 32.712427 0 0 0-10.406885-23.850591A36.228746 36.228746 0 0 0 887.95946 136.04054h-88.795946v-35.518379h88.795946a69.562744 69.562744 0 0 1 71.036757 67.822344L870.200271 473.465134z m-213.11027-337.424594h-337.424595v-35.518379h337.424595v35.518379z" fill="#5C97FF" p-id="15032"></path><path d="M828.217548 941.668399a17.759189 17.759189 0 0 1 0-25.129253l87.907987-87.907986-87.907987-87.907987a17.759189 17.759189 0 1 1 25.111494-25.129253l100.463733 100.463734a17.759189 17.759189 0 0 1 0 25.111493l-100.463733 100.499252a17.759189 17.759189 0 0 1-25.111494 0z" fill="#5C97FF" p-id="15033"></path><path d="M130.778669 5.26187a17.759189 17.759189 0 0 1 0 25.111494l-87.907986 87.907986 87.907986 87.890228a17.759189 17.759189 0 0 1-25.111493 25.111493l-100.463734-100.463733a17.759189 17.759189 0 0 1 0-25.111494l100.463734-100.445974a17.759189 17.759189 0 0 1 25.129253 0z" fill="#5C97FF" p-id="15034"></path><path d="M106.555135 473.465134m-17.759189 0a17.759189 17.759189 0 1 0 35.518378 0 17.759189 17.759189 0 1 0-35.518378 0Z" fill="#5C97FF" p-id="15035"></path><path d="M852.441082 473.465134m-17.759189 0a17.759189 17.759189 0 1 0 35.518378 0 17.759189 17.759189 0 1 0-35.518378 0Z" fill="#5C97FF" p-id="15036"></path><path d="M35.518378 100.522161h284.147028v35.518379h-284.147028z" fill="#5C97FF" p-id="15037"></path><path d="M621.571622 810.889729h301.906217v35.518379h-301.906217z" fill="#5C97FF" p-id="15038"></path><path d="M319.665406 313.632432m17.759189 0l0 0q17.759189 0 17.759189 17.759189l0 284.147027q0 17.759189-17.759189 17.759189l0 0q-17.759189 0-17.759189-17.759189l0-284.147027q0-17.759189 17.759189-17.759189Z" fill="#FFB266" p-id="15039"></path><path d="M532.775676 384.669188m17.75919 0l0 0q17.759189 0 17.759189 17.75919l0 213.11027q0 17.759189-17.759189 17.759189l0 0q-17.759189 0-17.75919-17.759189l0-213.11027q0-17.759189 17.75919-17.75919Z" fill="#FFB266" p-id="15040"></path><path d="M426.220541 402.428378m17.759189 0l0 0q17.759189 0 17.759189 17.759189l0 195.351081q0 17.759189-17.759189 17.759189l0 0q-17.759189 0-17.759189-17.759189l0-195.351081q0-17.759189 17.759189-17.759189Z" fill="#5C97FF" p-id="15041"></path><path d="M639.330812 455.705945m17.759189 0l0 0q17.759189 0 17.759189 17.759189l0 142.073514q0 17.759189-17.759189 17.759189l0 0q-17.759189 0-17.759189-17.759189l0-142.073514q0-17.759189 17.759189-17.759189Z" fill="#5C97FF" p-id="15042"></path><path d="M692.608379 100.522161m17.759189 0l35.518379 0q17.759189 0 17.759189 17.759189l0 0q0 17.759189-17.759189 17.75919l-35.518379 0q-17.759189 0-17.759189-17.75919l0 0q0-17.759189 17.759189-17.759189Z" fill="#5C97FF" p-id="15043"></path><path d="M799.163514 118.28135m-17.759189 0a17.759189 17.759189 0 1 0 35.518379 0 17.759189 17.759189 0 1 0-35.518379 0Z" fill="#5C97FF" p-id="15044"></path><path d="M657.090001 118.28135m-17.759189 0a17.759189 17.759189 0 1 0 35.518378 0 17.759189 17.759189 0 1 0-35.518378 0Z" fill="#5C97FF" p-id="15045"></path></svg>