<svg t="1729145915705" class="icon" viewBox="0 0 1024 1024" version="1.1" xmlns="http://www.w3.org/2000/svg" p-id="5080" width="200" height="200"><path d="M512 0C229.22752 0 0 229.22752 0 512s229.22752 512 512 512 512-229.22752 512-512S794.77248 0 512 0zM248.64768 346.2656c0-54.3232 43.29472-97.61792 97.61792-97.61792h35.0208c54.59968 0 97.8944 43.29472 97.61792 97.61792v132.64384H346.2656c-54.3232 0-97.61792-43.01824-97.61792-97.61792V346.2656z m231.91552 331.46368c0 54.32832-43.01824 97.61792-97.61792 97.61792h-35.0208c-54.3232 0-97.8944-43.01824-97.8944-97.61792v-35.02592c0-54.58944 43.29472-97.88928 97.8944-97.6128H480.5632v132.63872z m294.78912-0.27136c0 54.31808-43.01824 97.60768-97.61792 97.60768h-35.0208c-54.3232 0-97.61792-43.008-97.61792-97.60768v-132.64384h132.63872c54.32832 0 97.61792 43.29984 97.61792 97.61792v35.02592z m0-296.1664c0 54.3232-43.01824 97.61792-97.61792 97.61792h-132.63872V346.2656c0-54.3232 43.01824-97.61792 97.61792-97.61792h35.0208c54.32832 0 97.61792 43.29472 97.61792 97.61792v35.02592z" fill="" p-id="5081"></path></svg>