<svg t="1728718915833" class="icon" viewBox="0 0 1024 1024" version="1.1" xmlns="http://www.w3.org/2000/svg" p-id="3315" width="200" height="200"><path d="M814.016529 998.61157H218.763636c-16.396694 0-31.206612-6.664463-41.890909-17.34876-10.684298-10.684298-17.34876-25.6-17.34876-41.890909 0-16.396694 6.664463-31.206612 17.34876-41.890909 10.684298-10.684298 25.6-17.34876 41.890909-17.348761h595.358678c16.396694 0 31.206612 6.664463 41.890909 17.348761 10.684298 10.684298 17.34876 25.6 17.34876 41.890909 0 16.396694-6.664463 31.206612-17.34876 41.890909C845.22314 991.947107 830.413223 998.61157 814.016529 998.61157zM686.228099 563.305785h-48.661157v73.838017h48.661157c11.742149 0 21.47438-3.385124 28.456199-9.626447 6.876033-6.241322 10.895868-15.444628 10.895867-27.186776s-4.019835-20.945455-10.895867-27.292562c-6.981818-6.347107-16.819835-9.732231-28.456199-9.732232z" p-id="3316"></path><path d="M993.004959 254.307438c-4.33719-14.704132-13.963636-26.657851-26.234711-34.27438-12.271074-7.616529-27.186777-10.790083-42.31405-8.145455a60.202314 60.202314 0 0 0-37.024793 22.109091c-8.88595 11.319008-13.857851 25.81157-12.905785 41.150413 0.528926 8.039669 2.644628 15.867769 6.135537 22.955372 3.490909 7.087603 8.25124 13.646281 14.175207 19.041323l-4.12562 2.644628-4.12562 2.644628-86.003306 52.998347-86.003306 52.998347c-7.616529 4.54876-12.8 6.558678-17.13719 5.289256-4.33719-1.163636-7.828099-5.500826-12.059504-13.328925l-55.53719-101.871075-55.53719-101.871074c-6.770248-12.165289-13.434711-24.330579-19.993388-36.495868-6.664463-12.165289-13.22314-24.330579-19.887604-36.495868 20.204959-13.857851 32.581818-29.93719 36.813223-46.545454 4.12562-16.608264 0.105785-33.639669-12.588429-49.401653-8.25124-10.155372-19.252893-17.031405-31.312397-20.310744-12.059504-3.173554-25.071074-2.750413-37.236364 1.904132-12.165289 4.654545-22.214876 13.01157-28.985124 23.484298s-10.366942 22.955372-9.626446 35.966942c0.634711 12.905785 4.654545 23.695868 11.213223 32.687603s15.761983 16.185124 26.869422 21.897521l-76.8 141.01157-76.8 141.01157c-2.644628 4.760331-5.712397 7.616529-9.414876 8.46281s-7.933884-0.105785-12.8-2.961983c-8.46281-5.077686-16.819835-10.261157-25.282645-15.444628s-16.92562-10.472727-25.282645-15.656199c-22.214876-13.752066-44.535537-27.504132-66.856198-41.256198s-44.641322-27.398347-67.067769-41.256198c1.057851-1.269421 2.009917-2.433058 3.067769-3.490909l2.856198-3.173554c7.828099-9.203306 12.482645-20.310744 13.963637-31.841322 1.375207-11.530579-0.42314-23.378512-5.712397-34.274381-5.289256-10.895868-13.646281-19.676033-23.590083-25.6-9.943802-5.923967-21.580165-8.991736-33.745454-8.462809-12.482645 0.740496-24.013223 5.289256-33.533884 12.588429s-16.71405 17.34876-20.6281 29.30248l-1.586776 4.442975-1.586777 4.442975v21.157025c1.163636 2.856198 2.221488 5.923967 3.385124 8.780165s2.327273 5.818182 3.808264 8.568595c6.029752 11.107438 13.857851 19.252893 23.484298 24.542149 9.520661 5.289256 20.839669 7.933884 33.639669 7.933884 3.702479 12.8 19.781818 133.818182 34.909091 251.66281s29.408264 232.515702 29.408264 232.515703 2.327273 4.760331 6.770248 9.520661 10.790083 9.520661 18.935538 9.520661h658.618181c7.616529 0 12.694215-0.952066 16.50248-3.91405 3.808264-2.856198 6.241322-7.616529 8.357025-15.127272L897.163636 579.702479 927.735537 343.061157c0.528926-1.692562 1.163636-3.490909 1.692562-5.289256l1.904132-5.395041c17.13719-0.105785 30.783471-4.760331 41.361984-13.328926s17.983471-20.945455 22.849587-36.707438v-20.945455c-0.42314-1.163636-0.952066-2.327273-1.375207-3.596694-0.528926-1.163636-0.952066-2.327273-1.163636-3.490909z m-584.991736 500.786777H381.884298l-36.495868-110.968595-36.495868-111.07438h34.909091l25.6 80.714049 25.6 80.71405 25.6-80.71405 25.6-80.714049h35.543802l-36.813224 110.968595-36.919008 111.07438z m137.838017 0h-33.63967V533.05124H545.85124v222.042975z m142.175206-87.378513h-50.565289v87.378513h-33.639669V533.05124h84.204958c21.68595 0 39.457851 7.193388 51.834711 19.147107 12.37686 11.953719 19.252893 28.879339 19.252893 48.132232 0 19.358678-6.981818 36.178512-19.252893 48.132231s-30.14876 19.252893-51.834711 19.252892z" p-id="3317"></path></svg>