<svg t="1735027091230" class="icon" viewBox="0 0 1317 1024" version="1.1" xmlns="http://www.w3.org/2000/svg" p-id="2427" width="200" height="200"><path d="M76.190476 410.843429c368.90819 137.337905 244.49219 235.958857 494.738286 347.477333 161.987048 72.362667-37.10781 44.251429 117.955048 114.980571 30.646857 43.324952 188.708571 125.123048 261.997714 132.266667 22.820571-45.616762 29.96419-73.728 44.714666-111.518476 9.435429-25.6 38.692571-67.291429 60.586667-106.691048 48.859429-92.40381 18.212571-61.074286 26.038857-140.55619 7.826286-88.259048 5.534476-16.822857 85.040762-43.324953 44.690286-92.16 114.736762-224.670476 150.235429-320.292571L1033.386667 0c-38.497524 80.188952-80.896 138.020571-139.873524 214.991238-151.844571 198.38781-87.332571 112.444952-63.829333 211.992381-28.355048 2.29181-417.767619-14.531048-438.954667-20.967619-56.685714-18.456381-118.00381-54.613333-170.73981-68.900571-55.783619-15.213714-143.798857 11.288381-143.798857 73.728z m-70.948571 242.395428c158.96381 61.756952 402.066286 222.354286 549.083428 272.822857-33.889524-88.259048-39.18019-58.514286-113.127619-110.592-41.033143-28.111238-79.506286-59.440762-126.049524-92.403809-68.217905-48.835048-206.019048-155.769905-262.68038-179.736381L5.217524 653.238857z" p-id="2428"></path><path d="M394.654476 685.519238l80.164572 13.580191c3.242667-54.613333-233.398857-220.038095-278.332953-248.173715l-120.295619-44.909714c-39.399619 67.510857 74.654476 136.411429 132.973714 179.029333 38.473143 27.428571 147.017143 94.012952 185.490286 100.449524zM139.093333 912.481524l-7.801904 56.222476L216.990476 1024l76.970667-185.270857-75.337143-32.938667c-2.56 2.29181-5.558857 3.900952-7.168 9.679238l-72.362667 97.01181z" p-id="2429"></path></svg>