<svg t="1735199422678" class="icon" viewBox="0 0 1024 1024" version="1.1" xmlns="http://www.w3.org/2000/svg" p-id="97413" width="200" height="200"><path d="M908.36 130.793c-9.408 0.38-18.716 0.482-27.72 0.482-238.253 0-343.354-100.967-344.216-101.83L512.736 5.352l-23.968 24.095c-0.989 1.09-103.909 101.804-344.09 101.804-9.053 0-18.336-0.127-27.72-0.482l-33.478-1.116v457.687c0 119.785 43.268 294.582 417.589 428.317l11.717 4.16 11.718-4.16c374.295-133.71 417.563-308.532 417.563-428.317V129.702l-33.706 1.091m-432.604 574.86l-215.63-187.782 57.218-45.6 114.663 83.111s158.285-161 311.194-236.3l21.888 24.221c0.025 0.076-191.08 155.775-289.333 362.35" fill="#fff" p-id="97414"></path></svg>