<svg t="1702445881832" class="icon" viewBox="0 0 1024 1024" version="1.1" xmlns="http://www.w3.org/2000/svg" p-id="1956" width="200" height="200"><path d="M362.624 53.248C441.728 10.656 534.272 11.488 621.152 22.112c48.48 8.928 93.824 29.44 139.36 47.872 77.952 31.776 136.736 96.864 180.48 166.912 28.832 45.664 45.856 98.752 46.688 152.928-21.152-38.4-35.232-80.896-62.784-115.392-29.664-36.928-65.312-68.48-102.336-97.824 3.776 39.008 8.736 77.824 12.32 116.864-19.136-30.624-35.232-63.84-60.48-90.144-26.912-25.248-60.704-41.344-91.616-60.8 40.064 2.624 79.936 7.36 120 9.984-19.136-15.68-38.592-31.648-61.536-41.536-107.392-42.4-227.84-62.048-340.992-31.456-42.688 12.096-88.128 18.624-126.112 43.136-49.024 30.912-96.768 63.936-141.248 101.088a491.072 491.072 0 0 1 229.728-170.496z" p-id="1957" fill="#000000"></path><path d="M432.48 270.144c65.536-18.4 135.68-16.192 201.632-0.64 53.536 12.32 86.24 60.992 117.696 101.92-65.632-30.08-136.096-5.152-204.384-4.416 27.04 35.136 49.44 75.936 87.104 100.96 31.968 19.136 67.52 31.04 102.24 44.192 8.64-8.928 17.248-17.984 25.888-27.04-15.264-35.968-17.76-75.296-10.848-113.696 12.416 5.568 24.512 12 36.288 18.944-2.208 57.44 8.192 114.432 35.552 165.44-59.104 6.432-111.392-25.984-168.608-32.608 5.568 35.552 13.152 70.784 18.528 106.432a599.84 599.84 0 0 1-96.256-34.496c8.736 28.832 13.984 58.592 17.344 88.576-17.568 0.224-35.136 0.096-52.576-0.32 2.624-28.384 5.888-56.704 7.456-85.088-28.512 0.736-56.896 2.208-85.312 4.32-5.376 21.888-16.416 41.664-23.04 63.104-4.64-17.76-10.4-35.328-14.816-53.216l-33.664-5.056c7.36-24.288 17.568-47.648 25.568-71.744-20.288-4.64-42.592-16-62.688-4.832-33.664 15.552-68.672 29.344-106.432 28.096 10.944-39.872 29.664-77.824 33.024-119.392 3.264-23.232 3.264-49.024 20.288-67.2 34.592-42.912 75.104-86.88 130.016-102.24z m-121.376 123.072c-4.96 20.832 9.984 40.48 17.152 59.424-8.192 13.984-16.736 27.648-24.928 41.664 47.744 1.248 99.712-3.264 138.208-34.816 24.096-21.76 38.592-51.552 54.592-79.296-40.192-14.816-81.824-31.776-125.6-27.648-25.344 1.568-46.08 20.512-59.424 40.704z m214.976-4.544c-18.944 55.968-65.408 101.696-64.992 163.648 18.816 1.888 37.664 3.584 56.48 5.152 2.432-22.624 4.832-45.216 7.04-67.84 9.376 29.44 18.72 58.784 28.512 87.936 15.36-11.872 31.136-23.68 44.48-37.984 13.568-60.704-40.192-105.824-71.52-150.944z" p-id="1958" fill="#000000"></path><path d="M42.464 491.456c14.208-56.288 10.72-117.6 39.456-169.664-3.68 43.136-16.32 85.184-17.024 128.64 1.056 49.344 18.208 96.256 28.704 144l17.248 2.112c3.776-27.232 7.68-54.496 12.32-81.504 16.512 38.912 28.832 81.216 57.12 113.792 29.44 34.4 69.216 57.312 105.6 83.424-57.536-4.192-102.88-40.288-147.36-72.992 24.288 57.024 78.048 91.072 122.848 130.528 55.968 48.384 125.28 76.768 194.176 101.408 56.896 20.416 118.336 20.608 178.08 19.552 74.464-0.832 151.776-24.096 205.728-77.312-32.096 3.904-63.744 10.848-95.808 15.776a921.472 921.472 0 0 1 65.952-49.76 158.72 158.72 0 0 0 39.232 10.848c42.912-29.664 34.72-86.048 30.72-130.752 32.384 38.816 45.216 94.336 18.944 140-41.664 66.176-116.64 100.032-189.024 121.28l5.792 11.776c8.832 10.624 17.568 21.248 26.816 31.456-68.064 16.736-138.72 18.4-208.48 15.36 14.304-9.664 28.704-19.36 42.912-29.12-54.368-16.928-110.656-25.44-166.4-36.192-60.16-12-108.96-51.104-159.04-83.936 5.056 29.984 8.512 63.2 32.384 84.896 38.72 46.912 96.256 68.992 150.112 92.992-120.64 0.416-234.56-59.84-317.344-144.928 45.024 22.208 89.408 45.664 136.96 61.952-76.352-63.84-157.888-132.544-189.024-230.88-15.264-66.048-39.136-134.528-21.568-202.688z" p-id="1959" fill="#000000"></path><path d="M340.32 554.976c16.512-3.584 32.928-7.136 49.344-10.624-10.72 41.952-20.192 84.256-31.04 126.112-7.36-38.272-12.832-76.896-18.304-115.488zM681.44 552.864c18.304 0.32 36.608 0.832 55.008 1.248-21.664 39.328-26.08 84.032-24.608 128.096-15.68-41.664-26.912-84.896-30.4-129.376zM464.128 680.16c10.4-26.496 19.552-54.784 41.248-74.56 8.32 25.152 12.096 51.552 15.136 77.824a1964.608 1964.608 0 0 1-56.384-3.264zM422.272 702.336c-32.192-12.192-33.76-57.856-1.792-71.328 1.696 23.68 2.304 47.424 1.792 71.328zM632.096 707.712c2.432-30.816 12.416-60.992 42.176-75.296 0.832 26.08 0.096 52.16-0.512 78.24a158.528 158.528 0 0 1-41.664-2.944zM348 749.472c10.624-20.192 20.416-40.928 30.816-61.216 7.584 10.528 14.72 21.248 21.76 32.096l-34.912 4.32c8.512 10.624 16.736 21.472 24.416 32.704-14.08-2.304-28.096-4.928-42.08-7.904zM688.608 716c13.472-17.152 37.344 7.04 22.304 21.472-13.344 17.344-37.536-7.136-22.304-21.472zM739.2 937.728a618.944 618.944 0 0 1 83.84-24.192c-22.944 21.984-52.064 35.648-83.84 24.192z" p-id="1960" fill="#000000"></path></svg>